# xmcd
#
# Track frame offsets:
#	150
#	26109
#	47491
#	69433
#	106249
#	132589
#	144692
#	155821
#	177227
#	205512
#	235443
#	279891
#	305188
#	325599
#
# Disc length: 4580 seconds
#
# Revision: 1
# Processed by: cddbd v1.5.1PL2 Copyright (c) Steve Scherf et al.
# Submitted via: audiograbber 1.83.01
#
DISCID=cb11e20e
DTITLE=Colin Dussault - The Best Of - Greatest Hits Collection
DYEAR=2004
DGENRE=Blues
TTITLE0=Robo Intro - Fire and Rain
TTITLE1=Good Booty and BBQ
TTITLE2=Little Chicken Wing Girl
TTITLE3=Tidioute Pennsylvania (Revisited)
TTITLE4=Ballad Of Me 'N Opie
TTITLE5=Running About 50 Out Of Tuscon (Dialogue)
TTITLE6=18 Wheels, Dust and Diesel
TTITLE7=Plastic, Fantastic, Inflateable, Dateable Girl
TTITLE8=Crazy Love
TTITLE9=If I Give My Soul
TTITLE10=Amazing Grace
TTITLE11=It's All Over Now, Baby Blue
TTITLE12=Leona
TTITLE13=Ready For The Times To Get Better
EXTD=
EXTT0=
EXTT1=
EXTT2=
EXTT3=
EXTT4=
EXTT5=
EXTT6=
EXTT7=
EXTT8=
EXTT9=
EXTT10=
EXTT11=
EXTT12=
EXTT13=
PLAYORDER=
